<svg width="16" height="17" viewBox="0 0 16 17" fill="none" xmlns="http://www.w3.org/2000/svg">
<path d="M7.75528 8.53839C8.9161 8.53839 10.0294 8.10015 10.8502 7.32008C11.671 6.54 12.1322 5.482 12.1322 4.37881C12.1322 3.27562 11.671 2.21762 10.8502 1.43755C10.0294 0.657478 8.9161 0.219238 7.75528 0.219238C6.59445 0.219238 5.48117 0.657478 4.66034 1.43755C3.83951 2.21762 3.37838 3.27562 3.37838 4.37881C3.37838 5.482 3.83951 6.54 4.66034 7.32008C5.48117 8.10015 6.59445 8.53839 7.75528 8.53839ZM4.4726 10.3322C1.94221 11.0374 0.0957031 13.2602 0.0957031 15.8924C0.0957031 16.4253 0.55049 16.8575 1.11128 16.8575H14.3993C14.9601 16.8575 15.4149 16.4253 15.4149 15.8924C15.4149 13.2602 13.5683 11.0374 11.038 10.3322V11.983C11.9817 12.2138 12.6793 13.0294 12.6793 13.9978V15.2977C12.6793 15.5837 12.4331 15.8176 12.1322 15.8176H11.5851C11.2842 15.8176 11.038 15.5837 11.038 15.2977C11.038 15.0117 11.2842 14.7777 11.5851 14.7777V13.9978C11.5851 13.4226 11.0961 12.9579 10.4908 12.9579C9.8856 12.9579 9.39662 13.4226 9.39662 13.9978V14.7777C9.69753 14.7777 9.94373 15.0117 9.94373 15.2977C9.94373 15.5837 9.69753 15.8176 9.39662 15.8176H8.8495C8.54859 15.8176 8.30239 15.5837 8.30239 15.2977V13.9978C8.30239 13.0294 8.99996 12.2138 9.94373 11.983V10.1275C9.73856 10.108 9.52997 10.0982 9.31797 10.0982H6.19259C5.98058 10.0982 5.772 10.108 5.56683 10.1275V12.2528C6.35672 12.477 6.93461 13.1724 6.93461 13.9978C6.93461 15.002 6.07633 15.8176 5.01972 15.8176C3.9631 15.8176 3.10482 15.002 3.10482 13.9978C3.10482 13.1724 3.68271 12.477 4.4726 12.2528V10.3322ZM5.01972 14.7777C5.23737 14.7777 5.44611 14.6956 5.60002 14.5493C5.75392 14.4031 5.84038 14.2047 5.84038 13.9978C5.84038 13.791 5.75392 13.5926 5.60002 13.4463C5.44611 13.3001 5.23737 13.2179 5.01972 13.2179C4.80206 13.2179 4.59332 13.3001 4.43941 13.4463C4.28551 13.5926 4.19905 13.791 4.19905 13.9978C4.19905 14.2047 4.28551 14.4031 4.43941 14.5493C4.59332 14.6956 4.80206 14.7777 5.01972 14.7777Z" fill="white"/>
</svg>
