<svg width="19" height="20" viewBox="0 0 19 20" fill="none" xmlns="http://www.w3.org/2000/svg">
<path d="M16.253 2.09364H12.2621C11.8611 0.986098 10.8108 0.184082 9.56959 0.184082C8.32837 0.184082 7.27811 0.986098 6.87711 2.09364H2.88612C1.83586 2.09364 0.976562 2.95295 0.976562 4.0032V17.3701C0.976562 18.4204 1.83586 19.2797 2.88612 19.2797H16.253C17.3033 19.2797 18.1626 18.4204 18.1626 17.3701V4.0032C18.1626 2.95295 17.3033 2.09364 16.253 2.09364ZM9.56959 2.09364C10.0947 2.09364 10.5244 2.52329 10.5244 3.04842C10.5244 3.57355 10.0947 4.0032 9.56959 4.0032C9.04446 4.0032 8.61481 3.57355 8.61481 3.04842C8.61481 2.52329 9.04446 2.09364 9.56959 2.09364ZM9.56959 5.91276C11.1545 5.91276 12.4339 7.19217 12.4339 8.77711C12.4339 10.362 11.1545 11.6414 9.56959 11.6414C7.98465 11.6414 6.70524 10.362 6.70524 8.77711C6.70524 7.19217 7.98465 5.91276 9.56959 5.91276ZM15.2983 17.3701H3.8409V16.0334C3.8409 14.1239 7.66002 13.0736 9.56959 13.0736C11.4791 13.0736 15.2983 14.1239 15.2983 16.0334V17.3701Z" fill="white"/>
</svg>
